<svg width="15" height="15" viewBox="0 0 15 15" fill="none" xmlns="http://www.w3.org/2000/svg">
<rect x="0.34375" y="0.5" width="14" height="14" rx="7" fill="#C74817"/>
<path d="M10.183 7.57373C10.183 8.20752 10.1329 8.77327 10.0326 9.271C9.93594 9.76872 9.77839 10.1912 9.55996 10.5386C9.34512 10.8859 9.06224 11.1509 8.71133 11.3335C8.36042 11.5161 7.93431 11.6074 7.43301 11.6074C6.8028 11.6074 6.28538 11.4481 5.88076 11.1294C5.47614 10.8071 5.17715 10.3452 4.98379 9.74365C4.79043 9.13851 4.69375 8.4152 4.69375 7.57373C4.69375 6.7251 4.78148 6 4.95693 5.39844C5.13597 4.79329 5.42601 4.32959 5.82705 4.00732C6.22809 3.68506 6.76341 3.52393 7.43301 3.52393C8.05964 3.52393 8.57526 3.68506 8.97988 4.00732C9.38809 4.32601 9.69066 4.78792 9.8876 5.39307C10.0845 5.99463 10.183 6.72152 10.183 7.57373ZM6.34268 7.57373C6.34268 8.17171 6.3749 8.67122 6.43936 9.07227C6.50739 9.46973 6.62018 9.76872 6.77773 9.96924C6.93529 10.1698 7.15371 10.27 7.43301 10.27C7.70872 10.27 7.92536 10.1715 8.08291 9.97461C8.24404 9.77409 8.35863 9.4751 8.42666 9.07764C8.49469 8.6766 8.52871 8.17529 8.52871 7.57373C8.52871 6.97575 8.49469 6.47624 8.42666 6.0752C8.35863 5.67415 8.24404 5.37337 8.08291 5.17285C7.92536 4.96875 7.70872 4.8667 7.43301 4.8667C7.15371 4.8667 6.93529 4.96875 6.77773 5.17285C6.62018 5.37337 6.50739 5.67415 6.43936 6.0752C6.3749 6.47624 6.34268 6.97575 6.34268 7.57373Z" fill="white"/>
</svg>
